<svg width="52" height="29" viewBox="0 0 52 29" fill="none" xmlns="http://www.w3.org/2000/svg">
<path d="M36.5176 18.8289C37.931 16.9884 38.5912 14.6791 38.3644 12.3697C38.1376 10.0602 37.0407 7.92351 35.2963 6.39312C33.5519 4.86273 31.2906 4.05327 28.9712 4.12898C26.6519 4.20469 24.4482 5.1599 22.8073 6.8008C21.1664 8.4417 20.2112 10.6454 20.1355 12.9647C20.0598 15.2841 20.8692 17.5454 22.3996 19.2898C23.93 21.0342 26.0667 22.1311 28.3762 22.3579C30.6857 22.5847 32.9949 21.9244 34.8354 20.5111L38.0317 23.7418C38.112 23.8189 38.2188 23.8619 38.33 23.8619C38.4412 23.8619 38.5481 23.8189 38.6284 23.7418L39.7397 22.6305C39.8174 22.5501 39.8608 22.4428 39.8608 22.3311C39.8608 22.2194 39.8174 22.112 39.7397 22.0317L36.5176 18.8289ZM29.341 21.0258C28.1796 21.0251 27.0332 20.7628 25.987 20.2585C24.9408 19.7542 24.0216 19.0209 23.2975 18.1128C22.5734 17.2048 22.063 16.1454 21.8042 15.0132C21.5454 13.881 21.5448 12.7051 21.8025 11.5726C22.3668 8.96 25.001 6.32585 27.6179 5.75723C28.7503 5.49954 29.9263 5.50011 31.0585 5.75891C32.1907 6.01771 33.2501 6.52809 34.1581 7.2522C35.0661 7.9763 35.7995 8.89556 36.3038 9.94177C36.8081 10.988 37.0703 12.1343 37.0711 13.2957C37.0717 14.311 36.8721 15.3164 36.4839 16.2546C36.0956 17.1927 35.5262 18.0451 34.8083 18.763C34.0904 19.4809 33.238 20.0503 32.2998 20.4386C31.3617 20.8269 30.3563 21.0264 29.341 21.0258Z" fill="black"/>
<path d="M36.5563 18.8268C37.9683 16.9776 38.6247 14.6609 38.3926 12.3459C38.1605 10.0309 37.0571 7.89059 35.3061 6.35859C33.555 4.82659 31.2872 4.01738 28.9618 4.09487C26.6365 4.17236 24.4275 5.13075 22.7823 6.77593C21.1372 8.42111 20.1788 10.6301 20.1013 12.9554C20.0238 15.2808 20.833 17.5486 22.365 19.2997C23.897 21.0507 26.0373 22.1541 28.3523 22.3862C30.6673 22.6183 32.984 21.9619 34.8332 20.5498L38.0316 23.7806C38.1119 23.8576 38.2188 23.9006 38.33 23.9006C38.4412 23.9006 38.548 23.8576 38.6283 23.7806L39.7827 22.6262C39.8597 22.5459 39.9027 22.439 39.9027 22.3278C39.9027 22.2166 39.8597 22.1098 39.7827 22.0295L36.5563 18.8268ZM23.7193 20.4852C22.2906 19.3873 21.2196 17.8903 20.6416 16.1836C20.0637 14.477 20.0048 12.6372 20.4724 10.8971C20.9399 9.15696 21.913 7.59454 23.2685 6.4074C24.6241 5.22027 26.3012 4.46174 28.0878 4.22772C29.8744 3.9937 31.6903 4.29471 33.3058 5.09268C34.9213 5.89065 36.264 7.14975 37.164 8.71076C38.0639 10.2718 38.4808 12.0646 38.3619 13.8625C38.243 15.6605 37.5937 17.3828 36.496 18.8117L36.4809 18.8311L39.7116 22.0252C39.7893 22.1056 39.8327 22.2129 39.8327 22.3246C39.8327 22.4363 39.7893 22.5437 39.7116 22.624L38.6347 23.7009C38.5545 23.7779 38.4476 23.8209 38.3364 23.8209C38.2252 23.8209 38.1183 23.7779 38.0381 23.7009L34.844 20.4702L34.8246 20.4852C33.2314 21.7071 31.2797 22.3694 29.272 22.3694C27.2642 22.3694 25.3125 21.7071 23.7193 20.4852Z" fill="black"/>
<path d="M36.5176 18.8289C37.931 16.9884 38.5912 14.6791 38.3644 12.3697C38.1376 10.0602 37.0407 7.92351 35.2963 6.39312C33.5519 4.86273 31.2906 4.05327 28.9712 4.12898C26.6519 4.20469 24.4482 5.1599 22.8073 6.8008C21.1664 8.4417 20.2112 10.6454 20.1355 12.9647C20.0598 15.2841 20.8692 17.5454 22.3996 19.2898C23.93 21.0342 26.0667 22.1311 28.3762 22.3579C30.6857 22.5847 32.9949 21.9244 34.8354 20.5111L38.0317 23.7418C38.112 23.8189 38.2188 23.8619 38.33 23.8619C38.4412 23.8619 38.5481 23.8189 38.6284 23.7418L39.7397 22.6305C39.8174 22.5501 39.8608 22.4428 39.8608 22.3311C39.8608 22.2194 39.8174 22.112 39.7397 22.0317L36.5176 18.8289ZM29.341 21.0258C28.1796 21.0251 27.0332 20.7628 25.987 20.2585C24.9408 19.7542 24.0216 19.0209 23.2975 18.1128C22.5734 17.2048 22.063 16.1454 21.8042 15.0132C21.5454 13.881 21.5448 12.7051 21.8025 11.5726C22.3668 8.96 25.001 6.32585 27.6179 5.75723C28.7503 5.49954 29.9263 5.50011 31.0585 5.75891C32.1907 6.01771 33.2501 6.52809 34.1581 7.2522C35.0661 7.9763 35.7995 8.89556 36.3038 9.94177C36.8081 10.988 37.0703 12.1343 37.0711 13.2957C37.0717 14.311 36.8721 15.3164 36.4839 16.2546C36.0956 17.1927 35.5262 18.0451 34.8083 18.763C34.0904 19.4809 33.238 20.0503 32.2998 20.4386C31.3617 20.8269 30.3563 21.0264 29.341 21.0258Z" fill="#E2B013"/>
<path d="M36.5563 18.8268C37.9683 16.9776 38.6247 14.6609 38.3926 12.3459C38.1605 10.0309 37.0571 7.89059 35.3061 6.35859C33.555 4.82659 31.2872 4.01738 28.9618 4.09487C26.6365 4.17236 24.4275 5.13075 22.7823 6.77593C21.1372 8.42111 20.1788 10.6301 20.1013 12.9554C20.0238 15.2808 20.833 17.5486 22.365 19.2997C23.897 21.0507 26.0373 22.1541 28.3523 22.3862C30.6673 22.6183 32.984 21.9619 34.8332 20.5498L38.0316 23.7806C38.1119 23.8576 38.2188 23.9006 38.33 23.9006C38.4412 23.9006 38.548 23.8576 38.6283 23.7806L39.7827 22.6262C39.8597 22.5459 39.9027 22.439 39.9027 22.3278C39.9027 22.2166 39.8597 22.1098 39.7827 22.0295L36.5563 18.8268ZM23.7193 20.4852C22.2906 19.3873 21.2196 17.8903 20.6416 16.1836C20.0637 14.477 20.0048 12.6372 20.4724 10.8971C20.9399 9.15696 21.913 7.59454 23.2685 6.4074C24.6241 5.22027 26.3012 4.46174 28.0878 4.22772C29.8744 3.9937 31.6903 4.29471 33.3058 5.09268C34.9213 5.89065 36.264 7.14975 37.164 8.71076C38.0639 10.2718 38.4808 12.0646 38.3619 13.8625C38.243 15.6605 37.5937 17.3828 36.496 18.8117L36.4809 18.8311L39.7116 22.0252C39.7893 22.1056 39.8327 22.2129 39.8327 22.3246C39.8327 22.4363 39.7893 22.5437 39.7116 22.624L38.6347 23.7009C38.5545 23.7779 38.4476 23.8209 38.3364 23.8209C38.2252 23.8209 38.1183 23.7779 38.0381 23.7009L34.844 20.4702L34.8246 20.4852C33.2314 21.7071 31.2797 22.3694 29.272 22.3694C27.2642 22.3694 25.3125 21.7071 23.7193 20.4852Z" fill="#E2B013"/>
</svg>
